<svg width="640" height="640" viewBox="0 0 640 640" fill="none" xmlns="http://www.w3.org/2000/svg">
  <rect width="640" height="640" rx="128" fill="#0F172A"/>
  <circle cx="184" cy="162" r="126" fill="#14B8A6" opacity=".72"/>
  <circle cx="496" cy="136" r="154" fill="#2563EB" opacity=".66"/>
  <circle cx="430" cy="508" r="168" fill="#F59E0B" opacity=".38"/>
  <path d="M174 489c22-96 78-144 146-144s124 48 146 144" stroke="#F8FAFC" stroke-width="34" stroke-linecap="round"/>
  <circle cx="320" cy="257" r="96" fill="#F8FAFC"/>
  <path d="M247 247c16-47 47-71 94-71 42 0 75 21 99 63-19-8-44-12-75-12-48 0-87 7-118 20Z" fill="#111827"/>
  <path d="M244 288c31 38 64 57 100 57 34 0 62-15 84-44" stroke="#111827" stroke-width="18" stroke-linecap="round"/>
</svg>
