<svg width="1200" height="760" viewBox="0 0 1200 760" fill="none" xmlns="http://www.w3.org/2000/svg">
  <rect width="1200" height="760" rx="44" fill="#0F172A"/>
  <rect x="72" y="72" width="1056" height="616" rx="34" fill="#F8FAFC"/>
  <rect x="116" y="126" width="248" height="508" rx="26" fill="#E2E8F0"/>
  <rect x="410" y="126" width="298" height="214" rx="26" fill="#CCFBF1"/>
  <rect x="744" y="126" width="338" height="214" rx="26" fill="#DBEAFE"/>
  <rect x="410" y="384" width="672" height="250" rx="26" fill="#F1F5F9"/>
  <path d="M462 570 546 496l74 38 104-116 96 74 174-170" stroke="#0F766E" stroke-width="22" stroke-linecap="round" stroke-linejoin="round"/>
  <circle cx="514" cy="228" r="54" fill="#14B8A6"/>
  <circle cx="852" cy="228" r="54" fill="#2563EB"/>
  <rect x="158" y="172" width="154" height="18" rx="9" fill="#64748B"/>
  <rect x="158" y="236" width="118" height="18" rx="9" fill="#64748B"/>
  <rect x="158" y="300" width="164" height="18" rx="9" fill="#64748B"/>
  <rect x="158" y="364" width="132" height="18" rx="9" fill="#64748B"/>
</svg>
