<svg width="1200" height="760" viewBox="0 0 1200 760" fill="none" xmlns="http://www.w3.org/2000/svg">
  <rect width="1200" height="760" rx="44" fill="#111827"/>
  <rect x="86" y="92" width="1028" height="576" rx="34" fill="#FAFAF9"/>
  <rect x="136" y="152" width="242" height="456" rx="24" fill="#E0F2FE"/>
  <rect x="424" y="152" width="242" height="456" rx="24" fill="#FEF3C7"/>
  <rect x="712" y="152" width="242" height="456" rx="24" fill="#DCFCE7"/>
  <rect x="170" y="204" width="174" height="82" rx="18" fill="white"/>
  <rect x="170" y="324" width="174" height="82" rx="18" fill="white"/>
  <rect x="458" y="204" width="174" height="82" rx="18" fill="white"/>
  <rect x="458" y="324" width="174" height="82" rx="18" fill="white"/>
  <rect x="746" y="204" width="174" height="82" rx="18" fill="white"/>
  <rect x="746" y="324" width="174" height="82" rx="18" fill="white"/>
  <circle cx="224" cy="245" r="22" fill="#2563EB"/>
  <circle cx="512" cy="245" r="22" fill="#F59E0B"/>
  <circle cx="800" cy="245" r="22" fill="#16A34A"/>
  <path d="M296 482h536" stroke="#0F172A" stroke-width="18" stroke-linecap="round" stroke-dasharray="1 42"/>
</svg>
